<svg width="152" height="24" viewBox="0 0 152 24" fill="none" xmlns="http://www.w3.org/2000/svg">
<path d="M1.04 23C0.805334 23 0.613334 22.9253 0.464 22.776C0.314667 22.6267 0.24 22.4347 0.24 22.2V1.4C0.24 1.16533 0.314667 0.973332 0.464 0.823999C0.613334 0.674665 0.805334 0.599998 1.04 0.599998H10.8C12.6347 0.599998 14.1387 0.855998 15.312 1.368C16.4853 1.88 17.3493 2.616 17.904 3.576C18.48 4.51467 18.768 5.63467 18.768 6.936C18.768 7.704 18.6187 8.38667 18.32 8.984C18.0427 9.56 17.6907 10.04 17.264 10.424C16.8587 10.808 16.4747 11.0853 16.112 11.256C16.9227 11.64 17.6373 12.2693 18.256 13.144C18.896 14.0187 19.216 15.0427 19.216 16.216C19.216 17.624 18.896 18.84 18.256 19.864C17.6373 20.8667 16.72 21.6453 15.504 22.2C14.3093 22.7333 12.8373 23 11.088 23H1.04ZM5.968 18.84H10.448C11.3653 18.84 12.0587 18.5733 12.528 18.04C12.9973 17.5067 13.232 16.8987 13.232 16.216C13.232 15.4693 12.9867 14.84 12.496 14.328C12.0267 13.816 11.344 13.56 10.448 13.56H5.968V18.84ZM5.968 9.496H10.16C11.0347 9.496 11.6853 9.272 12.112 8.824C12.56 8.376 12.784 7.8 12.784 7.096C12.784 6.41333 12.56 5.85867 12.112 5.432C11.6853 4.984 11.0347 4.76 10.16 4.76H5.968V9.496ZM23.5713 23C23.3366 23 23.1446 22.9253 22.9953 22.776C22.8459 22.6267 22.7713 22.4347 22.7713 22.2V1.4C22.7713 1.16533 22.8459 0.973332 22.9953 0.823999C23.1446 0.674665 23.3366 0.599998 23.5713 0.599998H27.6033C27.8379 0.599998 28.0299 0.674665 28.1793 0.823999C28.3286 0.973332 28.4033 1.16533 28.4033 1.4V8.504L34.3233 1.208C34.4086 1.08 34.5473 0.951999 34.7393 0.823999C34.9526 0.674665 35.2299 0.599998 35.5713 0.599998H40.1793C40.3713 0.599998 40.5313 0.674665 40.6593 0.823999C40.7873 0.951999 40.8513 1.10133 40.8513 1.272C40.8513 1.42133 40.8086 1.54933 40.7233 1.656L33.0753 11.32L41.3313 21.944C41.4166 22.0293 41.4593 22.1573 41.4593 22.328C41.4593 22.4987 41.3846 22.6587 41.2353 22.808C41.1073 22.936 40.9579 23 40.7873 23H36.0193C35.6353 23 35.3366 22.9147 35.1233 22.744C34.9313 22.5733 34.8033 22.4453 34.7393 22.36L28.4033 14.456V22.2C28.4033 22.4347 28.3286 22.6267 28.1793 22.776C28.0299 22.9253 27.8379 23 27.6033 23H23.5713ZM48.3309 23C48.1842 23 48.0709 22.96 47.9909 22.88C47.9109 22.7867 47.8709 22.6733 47.8709 22.54V9.46C47.8709 9.32667 47.9109 9.22 47.9909 9.14C48.0709 9.04667 48.1842 9 48.3309 9H49.3909C49.5242 9 49.6309 9.04667 49.7109 9.14C49.7909 9.22 49.8309 9.32667 49.8309 9.46V21.26H56.4909C56.6375 21.26 56.7509 21.3067 56.8309 21.4C56.9109 21.48 56.9509 21.5933 56.9509 21.74V22.54C56.9509 22.6733 56.9109 22.7867 56.8309 22.88C56.7509 22.96 56.6375 23 56.4909 23H48.3309ZM59.3404 23C59.2071 23 59.0937 22.96 59.0004 22.88C58.9204 22.7867 58.8804 22.6733 58.8804 22.54V13.06C58.8804 12.9267 58.9204 12.82 59.0004 12.74C59.0937 12.6467 59.2071 12.6 59.3404 12.6H60.3004C60.4337 12.6 60.5404 12.6467 60.6204 12.74C60.7004 12.82 60.7404 12.9267 60.7404 13.06V22.54C60.7404 22.6733 60.7004 22.7867 60.6204 22.88C60.5404 22.96 60.4337 23 60.3004 23H59.3404ZM59.1804 10.66C59.0471 10.66 58.9337 10.62 58.8404 10.54C58.7604 10.4467 58.7204 10.3333 58.7204 10.2V9.12C58.7204 8.98667 58.7604 8.88 58.8404 8.8C58.9337 8.70667 59.0471 8.66 59.1804 8.66H60.4404C60.5737 8.66 60.6804 8.70667 60.7604 8.8C60.8537 8.88 60.9004 8.98667 60.9004 9.12V10.2C60.9004 10.3333 60.8537 10.4467 60.7604 10.54C60.6804 10.62 60.5737 10.66 60.4404 10.66H59.1804ZM67.3441 23C67.1441 23 66.9841 22.9533 66.8641 22.86C66.7575 22.7667 66.6708 22.6467 66.6041 22.5L62.9041 13.22C62.8775 13.1533 62.8641 13.0867 62.8641 13.02C62.8641 12.9 62.9041 12.8 62.9841 12.72C63.0641 12.64 63.1641 12.6 63.2841 12.6H64.2441C64.3908 12.6 64.5041 12.64 64.5841 12.72C64.6641 12.8 64.7108 12.8733 64.7241 12.94L67.7841 20.82L70.8241 12.94C70.8508 12.8733 70.8975 12.8 70.9641 12.72C71.0441 12.64 71.1575 12.6 71.3041 12.6H72.2841C72.3908 12.6 72.4841 12.64 72.5641 12.72C72.6575 12.8 72.7041 12.9 72.7041 13.02C72.7041 13.0867 72.6908 13.1533 72.6641 13.22L68.9441 22.5C68.8908 22.6467 68.8041 22.7667 68.6841 22.86C68.5775 22.9533 68.4175 23 68.2041 23H67.3441ZM78.5673 23.2C77.1939 23.2 76.1006 22.78 75.2873 21.94C74.4739 21.0867 74.0273 19.9267 73.9473 18.46C73.9339 18.2867 73.9273 18.0667 73.9273 17.8C73.9273 17.52 73.9339 17.2933 73.9473 17.12C74.0006 16.1733 74.2206 15.3467 74.6073 14.64C74.9939 13.92 75.5206 13.3667 76.1873 12.98C76.8673 12.5933 77.6606 12.4 78.5673 12.4C79.5806 12.4 80.4273 12.6133 81.1073 13.04C81.8006 13.4667 82.3273 14.0733 82.6873 14.86C83.0473 15.6467 83.2273 16.5667 83.2273 17.62V17.96C83.2273 18.1067 83.1806 18.22 83.0873 18.3C83.0073 18.38 82.9006 18.42 82.7673 18.42H75.8473C75.8473 18.4333 75.8473 18.46 75.8473 18.5C75.8473 18.54 75.8473 18.5733 75.8473 18.6C75.8739 19.1467 75.9939 19.66 76.2073 20.14C76.4206 20.6067 76.7273 20.9867 77.1273 21.28C77.5273 21.5733 78.0073 21.72 78.5673 21.72C79.0473 21.72 79.4473 21.6467 79.7673 21.5C80.0873 21.3533 80.3473 21.1933 80.5473 21.02C80.7473 20.8333 80.8806 20.6933 80.9473 20.6C81.0673 20.4267 81.1606 20.3267 81.2273 20.3C81.2939 20.26 81.4006 20.24 81.5473 20.24H82.5073C82.6406 20.24 82.7473 20.28 82.8273 20.36C82.9206 20.4267 82.9606 20.5267 82.9473 20.66C82.9339 20.86 82.8273 21.1067 82.6273 21.4C82.4273 21.68 82.1406 21.96 81.7673 22.24C81.3939 22.52 80.9406 22.7533 80.4073 22.94C79.8739 23.1133 79.2606 23.2 78.5673 23.2ZM75.8473 17.04H81.3273V16.98C81.3273 16.38 81.2139 15.8467 80.9873 15.38C80.7739 14.9133 80.4606 14.5467 80.0473 14.28C79.6339 14 79.1406 13.86 78.5673 13.86C77.9939 13.86 77.5006 14 77.0873 14.28C76.6873 14.5467 76.3806 14.9133 76.1673 15.38C75.9539 15.8467 75.8473 16.38 75.8473 16.98V17.04ZM91.241 23C91.1077 23 90.9943 22.96 90.901 22.88C90.821 22.7867 90.781 22.6733 90.781 22.54V9.48C90.781 9.33333 90.821 9.22 90.901 9.14C90.9943 9.04667 91.1077 9 91.241 9H92.241C92.401 9 92.521 9.04 92.601 9.12C92.681 9.2 92.7277 9.26667 92.741 9.32L96.981 17.4L101.241 9.32C101.268 9.26667 101.314 9.2 101.381 9.12C101.461 9.04 101.581 9 101.741 9H102.721C102.868 9 102.981 9.04667 103.061 9.14C103.154 9.22 103.201 9.33333 103.201 9.48V22.54C103.201 22.6733 103.154 22.7867 103.061 22.88C102.981 22.96 102.868 23 102.721 23H101.741C101.608 23 101.494 22.96 101.401 22.88C101.321 22.7867 101.281 22.6733 101.281 22.54V12.7L97.941 19.22C97.8877 19.3533 97.8077 19.46 97.701 19.54C97.5943 19.6067 97.461 19.64 97.301 19.64H96.681C96.5077 19.64 96.3677 19.6067 96.261 19.54C96.1677 19.46 96.0877 19.3533 96.021 19.22L92.681 12.7V22.54C92.681 22.6733 92.6343 22.7867 92.541 22.88C92.461 22.96 92.3543 23 92.221 23H91.241ZM109.3 23.2C108.633 23.2 108.027 23.0667 107.48 22.8C106.933 22.5333 106.493 22.1733 106.16 21.72C105.827 21.2667 105.66 20.7533 105.66 20.18C105.66 19.26 106.033 18.5267 106.78 17.98C107.527 17.4333 108.5 17.0733 109.7 16.9L112.68 16.48V15.9C112.68 15.26 112.493 14.76 112.12 14.4C111.76 14.04 111.167 13.86 110.34 13.86C109.74 13.86 109.253 13.98 108.88 14.22C108.52 14.46 108.267 14.7667 108.12 15.14C108.04 15.34 107.9 15.44 107.7 15.44H106.8C106.653 15.44 106.54 15.4 106.46 15.32C106.393 15.2267 106.36 15.12 106.36 15C106.36 14.8 106.433 14.5533 106.58 14.26C106.74 13.9667 106.98 13.68 107.3 13.4C107.62 13.12 108.027 12.8867 108.52 12.7C109.027 12.5 109.64 12.4 110.36 12.4C111.16 12.4 111.833 12.5067 112.38 12.72C112.927 12.92 113.353 13.1933 113.66 13.54C113.98 13.8867 114.207 14.28 114.34 14.72C114.487 15.16 114.56 15.6067 114.56 16.06V22.54C114.56 22.6733 114.513 22.7867 114.42 22.88C114.34 22.96 114.233 23 114.1 23H113.18C113.033 23 112.92 22.96 112.84 22.88C112.76 22.7867 112.72 22.6733 112.72 22.54V21.68C112.547 21.92 112.313 22.16 112.02 22.4C111.727 22.6267 111.36 22.82 110.92 22.98C110.48 23.1267 109.94 23.2 109.3 23.2ZM109.72 21.7C110.267 21.7 110.767 21.5867 111.22 21.36C111.673 21.12 112.027 20.7533 112.28 20.26C112.547 19.7667 112.68 19.1467 112.68 18.4V17.84L110.36 18.18C109.413 18.3133 108.7 18.54 108.22 18.86C107.74 19.1667 107.5 19.56 107.5 20.04C107.5 20.4133 107.607 20.7267 107.82 20.98C108.047 21.22 108.327 21.4 108.66 21.52C109.007 21.64 109.36 21.7 109.72 21.7ZM117.895 23C117.762 23 117.648 22.96 117.555 22.88C117.475 22.7867 117.435 22.6733 117.435 22.54V13.08C117.435 12.9467 117.475 12.8333 117.555 12.74C117.648 12.6467 117.762 12.6 117.895 12.6H118.815C118.948 12.6 119.062 12.6467 119.155 12.74C119.248 12.8333 119.295 12.9467 119.295 13.08V13.96C119.562 13.5067 119.928 13.1667 120.395 12.94C120.862 12.7133 121.422 12.6 122.075 12.6H122.875C123.008 12.6 123.115 12.6467 123.195 12.74C123.275 12.82 123.315 12.9267 123.315 13.06V13.88C123.315 14.0133 123.275 14.12 123.195 14.2C123.115 14.28 123.008 14.32 122.875 14.32H121.675C120.955 14.32 120.388 14.5333 119.975 14.96C119.562 15.3733 119.355 15.94 119.355 16.66V22.54C119.355 22.6733 119.308 22.7867 119.215 22.88C119.122 22.96 119.008 23 118.875 23H117.895ZM125.513 23C125.379 23 125.266 22.96 125.173 22.88C125.093 22.7867 125.053 22.6733 125.053 22.54V9.26C125.053 9.12667 125.093 9.02 125.173 8.94C125.266 8.84667 125.379 8.8 125.513 8.8H126.453C126.586 8.8 126.693 8.84667 126.773 8.94C126.866 9.02 126.913 9.12667 126.913 9.26V16.22L130.853 12.94C131.013 12.8067 131.133 12.72 131.213 12.68C131.306 12.6267 131.453 12.6 131.653 12.6H132.713C132.833 12.6 132.933 12.64 133.013 12.72C133.093 12.8 133.133 12.9 133.133 13.02C133.133 13.0733 133.113 13.1333 133.073 13.2C133.046 13.2667 132.986 13.3333 132.893 13.4L128.273 17.24L133.393 22.22C133.553 22.3533 133.633 22.4733 133.633 22.58C133.633 22.7 133.593 22.8 133.513 22.88C133.433 22.96 133.333 23 133.213 23H132.173C131.973 23 131.826 22.98 131.733 22.94C131.639 22.8867 131.519 22.7933 131.373 22.66L126.913 18.4V22.54C126.913 22.6733 126.866 22.7867 126.773 22.88C126.693 22.96 126.586 23 126.453 23H125.513ZM138.997 23.2C137.624 23.2 136.53 22.78 135.717 21.94C134.904 21.0867 134.457 19.9267 134.377 18.46C134.364 18.2867 134.357 18.0667 134.357 17.8C134.357 17.52 134.364 17.2933 134.377 17.12C134.43 16.1733 134.65 15.3467 135.037 14.64C135.424 13.92 135.95 13.3667 136.617 12.98C137.297 12.5933 138.09 12.4 138.997 12.4C140.01 12.4 140.857 12.6133 141.537 13.04C142.23 13.4667 142.757 14.0733 143.117 14.86C143.477 15.6467 143.657 16.5667 143.657 17.62V17.96C143.657 18.1067 143.61 18.22 143.517 18.3C143.437 18.38 143.33 18.42 143.197 18.42H136.277C136.277 18.4333 136.277 18.46 136.277 18.5C136.277 18.54 136.277 18.5733 136.277 18.6C136.304 19.1467 136.424 19.66 136.637 20.14C136.85 20.6067 137.157 20.9867 137.557 21.28C137.957 21.5733 138.437 21.72 138.997 21.72C139.477 21.72 139.877 21.6467 140.197 21.5C140.517 21.3533 140.777 21.1933 140.977 21.02C141.177 20.8333 141.31 20.6933 141.377 20.6C141.497 20.4267 141.59 20.3267 141.657 20.3C141.724 20.26 141.83 20.24 141.977 20.24H142.937C143.07 20.24 143.177 20.28 143.257 20.36C143.35 20.4267 143.39 20.5267 143.377 20.66C143.364 20.86 143.257 21.1067 143.057 21.4C142.857 21.68 142.57 21.96 142.197 22.24C141.824 22.52 141.37 22.7533 140.837 22.94C140.304 23.1133 139.69 23.2 138.997 23.2ZM136.277 17.04H141.757V16.98C141.757 16.38 141.644 15.8467 141.417 15.38C141.204 14.9133 140.89 14.5467 140.477 14.28C140.064 14 139.57 13.86 138.997 13.86C138.424 13.86 137.93 14 137.517 14.28C137.117 14.5467 136.81 14.9133 136.597 15.38C136.384 15.8467 136.277 16.38 136.277 16.98V17.04ZM150.05 23C149.303 23 148.696 22.86 148.23 22.58C147.763 22.2867 147.423 21.88 147.21 21.36C146.996 20.8267 146.89 20.2 146.89 19.48V14.2H145.33C145.196 14.2 145.083 14.16 144.99 14.08C144.91 13.9867 144.87 13.8733 144.87 13.74V13.06C144.87 12.9267 144.91 12.82 144.99 12.74C145.083 12.6467 145.196 12.6 145.33 12.6H146.89V9.26C146.89 9.12667 146.93 9.02 147.01 8.94C147.103 8.84667 147.216 8.8 147.35 8.8H148.29C148.423 8.8 148.53 8.84667 148.61 8.94C148.703 9.02 148.75 9.12667 148.75 9.26V12.6H151.23C151.363 12.6 151.47 12.6467 151.55 12.74C151.643 12.82 151.69 12.9267 151.69 13.06V13.74C151.69 13.8733 151.643 13.9867 151.55 14.08C151.47 14.16 151.363 14.2 151.23 14.2H148.75V19.34C148.75 19.9667 148.856 20.46 149.07 20.82C149.283 21.18 149.663 21.36 150.21 21.36H151.43C151.563 21.36 151.67 21.4067 151.75 21.5C151.843 21.58 151.89 21.6867 151.89 21.82V22.54C151.89 22.6733 151.843 22.7867 151.75 22.88C151.67 22.96 151.563 23 151.43 23H150.05Z" fill="#40A9FF"/>
</svg>
